<mxfile host="www.draw.io" modified="2019-10-20T16:17:31.959Z" agent="Mozilla/5.0 (Windows NT 10.0; Win64; x64) AppleWebKit/537.36 (KHTML, like Gecko) Chrome/77.0.3865.120 Safari/537.36" etag="m_jPmDQIkLe5ECZM0-aw" version="12.1.3" type="github" pages="1">
  <diagram id="6a731a19-8d31-9384-78a2-239565b7b9f0" name="Page-1">
    <mxGraphModel dx="1870" dy="1001" grid="1" gridSize="10" guides="1" tooltips="1" connect="1" arrows="1" fold="1" page="1" pageScale="1" pageWidth="3300" pageHeight="2339" background="#ffffff" math="0" shadow="0">
      <root>
        <mxCell id="0"/>
        <mxCell id="1" parent="0"/>
        <mxCell id="9dvlRsEhw4zqkDcm1pJb-57" value="" style="edgeStyle=orthogonalEdgeStyle;rounded=0;orthogonalLoop=1;jettySize=auto;html=1;" edge="1" parent="1" source="9dvlRsEhw4zqkDcm1pJb-55" target="9dvlRsEhw4zqkDcm1pJb-56">
          <mxGeometry relative="1" as="geometry"/>
        </mxCell>
        <mxCell id="9dvlRsEhw4zqkDcm1pJb-55" value="Start" style="ellipse;whiteSpace=wrap;html=1;" vertex="1" parent="1">
          <mxGeometry x="1400" y="60" width="120" height="80" as="geometry"/>
        </mxCell>
        <mxCell id="9dvlRsEhw4zqkDcm1pJb-59" value="" style="edgeStyle=orthogonalEdgeStyle;rounded=0;orthogonalLoop=1;jettySize=auto;html=1;" edge="1" parent="1" source="9dvlRsEhw4zqkDcm1pJb-56" target="9dvlRsEhw4zqkDcm1pJb-58">
          <mxGeometry relative="1" as="geometry"/>
        </mxCell>
        <mxCell id="9dvlRsEhw4zqkDcm1pJb-56" value="TinggiGunung,JenisPendaki,&lt;br&gt;KemampuanMaksimal,MaksimalBisa,&lt;br&gt;BerasSingle = 2, Maksimalharus,kesimpulantim,&lt;br&gt;berastim = 0.4&lt;br&gt;airtim = 1.5" style="shape=hexagon;perimeter=hexagonPerimeter2;whiteSpace=wrap;html=1;" vertex="1" parent="1">
          <mxGeometry x="1335" y="185" width="250" height="130" as="geometry"/>
        </mxCell>
        <mxCell id="9dvlRsEhw4zqkDcm1pJb-61" value="" style="edgeStyle=orthogonalEdgeStyle;rounded=0;orthogonalLoop=1;jettySize=auto;html=1;" edge="1" parent="1" source="9dvlRsEhw4zqkDcm1pJb-58" target="9dvlRsEhw4zqkDcm1pJb-60">
          <mxGeometry relative="1" as="geometry"/>
        </mxCell>
        <mxCell id="9dvlRsEhw4zqkDcm1pJb-58" value="Input tinggigunung,&lt;br&gt;JenisPendaki" style="shape=parallelogram;perimeter=parallelogramPerimeter;whiteSpace=wrap;html=1;" vertex="1" parent="1">
          <mxGeometry x="1400" y="360" width="120" height="60" as="geometry"/>
        </mxCell>
        <mxCell id="9dvlRsEhw4zqkDcm1pJb-63" value="" style="edgeStyle=orthogonalEdgeStyle;rounded=0;orthogonalLoop=1;jettySize=auto;html=1;" edge="1" parent="1" source="9dvlRsEhw4zqkDcm1pJb-60" target="9dvlRsEhw4zqkDcm1pJb-62">
          <mxGeometry relative="1" as="geometry"/>
        </mxCell>
        <mxCell id="9dvlRsEhw4zqkDcm1pJb-82" value="" style="edgeStyle=orthogonalEdgeStyle;rounded=0;orthogonalLoop=1;jettySize=auto;html=1;" edge="1" parent="1" source="9dvlRsEhw4zqkDcm1pJb-60" target="9dvlRsEhw4zqkDcm1pJb-81">
          <mxGeometry relative="1" as="geometry"/>
        </mxCell>
        <mxCell id="9dvlRsEhw4zqkDcm1pJb-60" value="Jenis Pendaki =&lt;br&gt;S" style="rhombus;whiteSpace=wrap;html=1;" vertex="1" parent="1">
          <mxGeometry x="1385" y="460" width="150" height="145" as="geometry"/>
        </mxCell>
        <mxCell id="9dvlRsEhw4zqkDcm1pJb-84" value="" style="edgeStyle=orthogonalEdgeStyle;rounded=0;orthogonalLoop=1;jettySize=auto;html=1;" edge="1" parent="1" source="9dvlRsEhw4zqkDcm1pJb-81" target="9dvlRsEhw4zqkDcm1pJb-83">
          <mxGeometry relative="1" as="geometry"/>
        </mxCell>
        <mxCell id="9dvlRsEhw4zqkDcm1pJb-81" value="Jenis Pendaki =&lt;br&gt;T" style="rhombus;whiteSpace=wrap;html=1;" vertex="1" parent="1">
          <mxGeometry x="1385" y="685" width="150" height="145" as="geometry"/>
        </mxCell>
        <mxCell id="9dvlRsEhw4zqkDcm1pJb-65" value="" style="edgeStyle=orthogonalEdgeStyle;rounded=0;orthogonalLoop=1;jettySize=auto;html=1;" edge="1" parent="1" source="9dvlRsEhw4zqkDcm1pJb-62" target="9dvlRsEhw4zqkDcm1pJb-64">
          <mxGeometry relative="1" as="geometry"/>
        </mxCell>
        <mxCell id="9dvlRsEhw4zqkDcm1pJb-62" value="KemampuanMaksimal&lt;br&gt;= .... kg&lt;br&gt;MaksimalBisa = KemampuanMaksimal - (KemampuanMaksimal * 3/4)" style="rounded=0;whiteSpace=wrap;html=1;" vertex="1" parent="1">
          <mxGeometry x="1600" y="489" width="170" height="87" as="geometry"/>
        </mxCell>
        <mxCell id="9dvlRsEhw4zqkDcm1pJb-67" value="" style="edgeStyle=orthogonalEdgeStyle;rounded=0;orthogonalLoop=1;jettySize=auto;html=1;" edge="1" parent="1" source="9dvlRsEhw4zqkDcm1pJb-64" target="9dvlRsEhw4zqkDcm1pJb-66">
          <mxGeometry relative="1" as="geometry"/>
        </mxCell>
        <mxCell id="9dvlRsEhw4zqkDcm1pJb-64" value="Berassingle = ( 0.6 : 1000) x&lt;br&gt;tinggiGunung&lt;br&gt;AirSingle = (2:1000) x&lt;br&gt;tinggigunung" style="rounded=0;whiteSpace=wrap;html=1;" vertex="1" parent="1">
          <mxGeometry x="1835" y="489" width="170" height="87" as="geometry"/>
        </mxCell>
        <mxCell id="9dvlRsEhw4zqkDcm1pJb-69" value="" style="edgeStyle=orthogonalEdgeStyle;rounded=0;orthogonalLoop=1;jettySize=auto;html=1;" edge="1" parent="1" source="9dvlRsEhw4zqkDcm1pJb-66" target="9dvlRsEhw4zqkDcm1pJb-68">
          <mxGeometry relative="1" as="geometry"/>
        </mxCell>
        <mxCell id="9dvlRsEhw4zqkDcm1pJb-66" value="MaksimalHarus =&lt;br&gt;Berassingle + Airsingle" style="rounded=0;whiteSpace=wrap;html=1;" vertex="1" parent="1">
          <mxGeometry x="1835" y="630" width="170" height="87" as="geometry"/>
        </mxCell>
        <mxCell id="9dvlRsEhw4zqkDcm1pJb-72" value="" style="edgeStyle=orthogonalEdgeStyle;rounded=0;orthogonalLoop=1;jettySize=auto;html=1;" edge="1" parent="1" source="9dvlRsEhw4zqkDcm1pJb-68" target="9dvlRsEhw4zqkDcm1pJb-71">
          <mxGeometry relative="1" as="geometry"/>
        </mxCell>
        <mxCell id="9dvlRsEhw4zqkDcm1pJb-74" value="" style="edgeStyle=orthogonalEdgeStyle;rounded=0;orthogonalLoop=1;jettySize=auto;html=1;" edge="1" parent="1" source="9dvlRsEhw4zqkDcm1pJb-68" target="9dvlRsEhw4zqkDcm1pJb-73">
          <mxGeometry relative="1" as="geometry"/>
        </mxCell>
        <mxCell id="9dvlRsEhw4zqkDcm1pJb-68" value="MaksimalHarus &amp;gt;&lt;br&gt;MaksimalBisa" style="rhombus;whiteSpace=wrap;html=1;" vertex="1" parent="1">
          <mxGeometry x="1850" y="750" width="140" height="120" as="geometry"/>
        </mxCell>
        <mxCell id="9dvlRsEhw4zqkDcm1pJb-78" value="" style="edgeStyle=orthogonalEdgeStyle;rounded=0;orthogonalLoop=1;jettySize=auto;html=1;" edge="1" parent="1" source="9dvlRsEhw4zqkDcm1pJb-71" target="9dvlRsEhw4zqkDcm1pJb-77">
          <mxGeometry relative="1" as="geometry"/>
        </mxCell>
        <mxCell id="9dvlRsEhw4zqkDcm1pJb-71" value="MaksimalHarus &amp;lt;&lt;br&gt;MaksimalBisa" style="rhombus;whiteSpace=wrap;html=1;" vertex="1" parent="1">
          <mxGeometry x="1850" y="903" width="140" height="120" as="geometry"/>
        </mxCell>
        <mxCell id="9dvlRsEhw4zqkDcm1pJb-73" value="Kesimpulan = Batal" style="shape=parallelogram;perimeter=parallelogramPerimeter;whiteSpace=wrap;html=1;" vertex="1" parent="1">
          <mxGeometry x="2040" y="780" width="170" height="60" as="geometry"/>
        </mxCell>
        <mxCell id="9dvlRsEhw4zqkDcm1pJb-77" value="Kesimpulan = Naik" style="shape=parallelogram;perimeter=parallelogramPerimeter;whiteSpace=wrap;html=1;" vertex="1" parent="1">
          <mxGeometry x="2040" y="933" width="170" height="60" as="geometry"/>
        </mxCell>
        <mxCell id="9dvlRsEhw4zqkDcm1pJb-79" value="" style="edgeStyle=elbowEdgeStyle;elbow=horizontal;endArrow=classic;html=1;exitX=1;exitY=0.5;exitDx=0;exitDy=0;entryX=1;entryY=0.5;entryDx=0;entryDy=0;" edge="1" parent="1" source="9dvlRsEhw4zqkDcm1pJb-73" target="9dvlRsEhw4zqkDcm1pJb-102">
          <mxGeometry width="50" height="50" relative="1" as="geometry">
            <mxPoint x="2250" y="840" as="sourcePoint"/>
            <mxPoint x="2240" y="1080" as="targetPoint"/>
            <Array as="points">
              <mxPoint x="2240" y="940"/>
            </Array>
          </mxGeometry>
        </mxCell>
        <mxCell id="9dvlRsEhw4zqkDcm1pJb-80" value="" style="edgeStyle=elbowEdgeStyle;elbow=horizontal;endArrow=classic;html=1;exitX=1;exitY=0.5;exitDx=0;exitDy=0;entryX=1;entryY=0.5;entryDx=0;entryDy=0;" edge="1" parent="1" source="9dvlRsEhw4zqkDcm1pJb-77" target="9dvlRsEhw4zqkDcm1pJb-102">
          <mxGeometry width="50" height="50" relative="1" as="geometry">
            <mxPoint x="1700" y="1130" as="sourcePoint"/>
            <mxPoint x="2240" y="1080" as="targetPoint"/>
            <Array as="points">
              <mxPoint x="2240" y="1020"/>
            </Array>
          </mxGeometry>
        </mxCell>
        <mxCell id="9dvlRsEhw4zqkDcm1pJb-86" value="" style="edgeStyle=orthogonalEdgeStyle;rounded=0;orthogonalLoop=1;jettySize=auto;html=1;" edge="1" parent="1" source="9dvlRsEhw4zqkDcm1pJb-83" target="9dvlRsEhw4zqkDcm1pJb-85">
          <mxGeometry relative="1" as="geometry"/>
        </mxCell>
        <mxCell id="9dvlRsEhw4zqkDcm1pJb-83" value="JumlahPendaki = ... Org&lt;br&gt;KemampuanMaksimal = ... Kg" style="rounded=0;whiteSpace=wrap;html=1;" vertex="1" parent="1">
          <mxGeometry x="1160" y="714" width="170" height="87" as="geometry"/>
        </mxCell>
        <mxCell id="9dvlRsEhw4zqkDcm1pJb-88" value="" style="edgeStyle=orthogonalEdgeStyle;rounded=0;orthogonalLoop=1;jettySize=auto;html=1;" edge="1" parent="1" source="9dvlRsEhw4zqkDcm1pJb-85" target="9dvlRsEhw4zqkDcm1pJb-87">
          <mxGeometry relative="1" as="geometry"/>
        </mxCell>
        <mxCell id="9dvlRsEhw4zqkDcm1pJb-85" value="KemampuanTim =&amp;nbsp;&lt;br&gt;JumlahPendaki x&lt;br&gt;KemampuanMaksimal" style="rounded=0;whiteSpace=wrap;html=1;" vertex="1" parent="1">
          <mxGeometry x="910" y="714" width="170" height="87" as="geometry"/>
        </mxCell>
        <mxCell id="9dvlRsEhw4zqkDcm1pJb-90" value="" style="edgeStyle=orthogonalEdgeStyle;rounded=0;orthogonalLoop=1;jettySize=auto;html=1;" edge="1" parent="1" source="9dvlRsEhw4zqkDcm1pJb-87" target="9dvlRsEhw4zqkDcm1pJb-89">
          <mxGeometry relative="1" as="geometry"/>
        </mxCell>
        <mxCell id="9dvlRsEhw4zqkDcm1pJb-87" value="MaksimalBisa =&amp;nbsp;&lt;br&gt;KemampuanTimm - (Kemampuantim * 0.5)" style="rounded=0;whiteSpace=wrap;html=1;" vertex="1" parent="1">
          <mxGeometry x="910" y="840" width="170" height="87" as="geometry"/>
        </mxCell>
        <mxCell id="9dvlRsEhw4zqkDcm1pJb-92" value="" style="edgeStyle=orthogonalEdgeStyle;rounded=0;orthogonalLoop=1;jettySize=auto;html=1;" edge="1" parent="1" source="9dvlRsEhw4zqkDcm1pJb-89" target="9dvlRsEhw4zqkDcm1pJb-91">
          <mxGeometry relative="1" as="geometry"/>
        </mxCell>
        <mxCell id="9dvlRsEhw4zqkDcm1pJb-89" value="BerasTim = (0.4 : 900) x&lt;br&gt;tinggigunung x&lt;br&gt;jumlahpendaki&lt;br&gt;airtim = (1.5 : 900) x&lt;br&gt;tinggigunung x&lt;br&gt;jumlahpendaki" style="rounded=0;whiteSpace=wrap;html=1;" vertex="1" parent="1">
          <mxGeometry x="910" y="966" width="170" height="87" as="geometry"/>
        </mxCell>
        <mxCell id="9dvlRsEhw4zqkDcm1pJb-94" value="" style="edgeStyle=orthogonalEdgeStyle;rounded=0;orthogonalLoop=1;jettySize=auto;html=1;" edge="1" parent="1" source="9dvlRsEhw4zqkDcm1pJb-91" target="9dvlRsEhw4zqkDcm1pJb-93">
          <mxGeometry relative="1" as="geometry"/>
        </mxCell>
        <mxCell id="9dvlRsEhw4zqkDcm1pJb-91" value="MaksimalHarus = Berastim + airtim" style="rounded=0;whiteSpace=wrap;html=1;" vertex="1" parent="1">
          <mxGeometry x="910" y="1092" width="170" height="87" as="geometry"/>
        </mxCell>
        <mxCell id="9dvlRsEhw4zqkDcm1pJb-97" value="" style="edgeStyle=orthogonalEdgeStyle;rounded=0;orthogonalLoop=1;jettySize=auto;html=1;" edge="1" parent="1" source="9dvlRsEhw4zqkDcm1pJb-93" target="9dvlRsEhw4zqkDcm1pJb-96">
          <mxGeometry relative="1" as="geometry"/>
        </mxCell>
        <mxCell id="9dvlRsEhw4zqkDcm1pJb-99" value="" style="edgeStyle=orthogonalEdgeStyle;rounded=0;orthogonalLoop=1;jettySize=auto;html=1;" edge="1" parent="1" source="9dvlRsEhw4zqkDcm1pJb-93" target="9dvlRsEhw4zqkDcm1pJb-98">
          <mxGeometry relative="1" as="geometry"/>
        </mxCell>
        <mxCell id="9dvlRsEhw4zqkDcm1pJb-93" value="MaksimalHarus &amp;gt;&lt;br&gt;MaksimalBisa" style="rhombus;whiteSpace=wrap;html=1;" vertex="1" parent="1">
          <mxGeometry x="1130" y="1062.9285714285716" width="150" height="145" as="geometry"/>
        </mxCell>
        <mxCell id="9dvlRsEhw4zqkDcm1pJb-101" value="" style="edgeStyle=orthogonalEdgeStyle;rounded=0;orthogonalLoop=1;jettySize=auto;html=1;" edge="1" parent="1" source="9dvlRsEhw4zqkDcm1pJb-98" target="9dvlRsEhw4zqkDcm1pJb-100">
          <mxGeometry relative="1" as="geometry"/>
        </mxCell>
        <mxCell id="9dvlRsEhw4zqkDcm1pJb-98" value="MaksimalHarus &amp;lt;&lt;br&gt;MaksimalBisa" style="rhombus;whiteSpace=wrap;html=1;" vertex="1" parent="1">
          <mxGeometry x="1130" y="1249.9285714285716" width="150" height="145" as="geometry"/>
        </mxCell>
        <mxCell id="9dvlRsEhw4zqkDcm1pJb-96" value="Kesimpulan = batal" style="shape=parallelogram;perimeter=parallelogramPerimeter;whiteSpace=wrap;html=1;" vertex="1" parent="1">
          <mxGeometry x="1320" y="1105.5" width="160" height="60" as="geometry"/>
        </mxCell>
        <mxCell id="9dvlRsEhw4zqkDcm1pJb-100" value="Kesimpulan = Naik" style="shape=parallelogram;perimeter=parallelogramPerimeter;whiteSpace=wrap;html=1;" vertex="1" parent="1">
          <mxGeometry x="1320" y="1292.5" width="160" height="60" as="geometry"/>
        </mxCell>
        <mxCell id="9dvlRsEhw4zqkDcm1pJb-102" value="End" style="ellipse;whiteSpace=wrap;html=1;" vertex="1" parent="1">
          <mxGeometry x="1625" y="1080" width="120" height="80" as="geometry"/>
        </mxCell>
        <mxCell id="9dvlRsEhw4zqkDcm1pJb-103" value="" style="edgeStyle=elbowEdgeStyle;elbow=horizontal;endArrow=classic;html=1;exitX=1;exitY=0.5;exitDx=0;exitDy=0;entryX=0;entryY=0.5;entryDx=0;entryDy=0;" edge="1" parent="1" source="9dvlRsEhw4zqkDcm1pJb-100" target="9dvlRsEhw4zqkDcm1pJb-102">
          <mxGeometry width="50" height="50" relative="1" as="geometry">
            <mxPoint x="1240" y="1490" as="sourcePoint"/>
            <mxPoint x="1290" y="1440" as="targetPoint"/>
          </mxGeometry>
        </mxCell>
        <mxCell id="9dvlRsEhw4zqkDcm1pJb-104" value="" style="edgeStyle=elbowEdgeStyle;elbow=horizontal;endArrow=classic;html=1;exitX=1;exitY=0.5;exitDx=0;exitDy=0;entryX=0;entryY=0.5;entryDx=0;entryDy=0;" edge="1" parent="1" source="9dvlRsEhw4zqkDcm1pJb-96" target="9dvlRsEhw4zqkDcm1pJb-102">
          <mxGeometry width="50" height="50" relative="1" as="geometry">
            <mxPoint x="1490" y="1470" as="sourcePoint"/>
            <mxPoint x="1540" y="1420" as="targetPoint"/>
          </mxGeometry>
        </mxCell>
      </root>
    </mxGraphModel>
  </diagram>
</mxfile>
